<mxfile host="Electron" agent="Mozilla/5.0 (X11; Linux x86_64) AppleWebKit/537.36 (KHTML, like Gecko) draw.io/26.0.16 Chrome/132.0.6834.210 Electron/34.3.2 Safari/537.36" version="26.0.16" pages="5">
  <diagram name="1" id="raGk_D8FTLXwgUmbc4jt">
    <mxGraphModel dx="934" dy="1448" grid="1" gridSize="10" guides="1" tooltips="1" connect="1" arrows="1" fold="1" page="1" pageScale="1" pageWidth="860" pageHeight="140" math="0" shadow="0">
      <root>
        <mxCell id="0" />
        <mxCell id="1" parent="0" />
        <mxCell id="zCmTgFsGxIaxcytd8qIg-1" value="r" style="text;html=1;align=center;verticalAlign=middle;whiteSpace=wrap;rounded=0;fillColor=#dae8fc;strokeColor=#6c8ebf;fontSize=14;fontColor=#333333;" parent="1" vertex="1">
          <mxGeometry x="40" y="40" width="40" height="40" as="geometry" />
        </mxCell>
        <mxCell id="zCmTgFsGxIaxcytd8qIg-2" value="a" style="text;html=1;align=center;verticalAlign=middle;whiteSpace=wrap;rounded=0;fillColor=#d5e8d4;strokeColor=#82b366;fontSize=14;fontColor=#333333;" parent="1" vertex="1">
          <mxGeometry x="80" y="40" width="40" height="40" as="geometry" />
        </mxCell>
        <mxCell id="zCmTgFsGxIaxcytd8qIg-3" value="c" style="text;html=1;align=center;verticalAlign=middle;whiteSpace=wrap;rounded=0;fillColor=#ffe6cc;strokeColor=#d79b00;fontSize=14;fontColor=#333333;" parent="1" vertex="1">
          <mxGeometry x="120" y="40" width="40" height="40" as="geometry" />
        </mxCell>
        <mxCell id="zCmTgFsGxIaxcytd8qIg-4" value="e" style="text;html=1;align=center;verticalAlign=middle;whiteSpace=wrap;rounded=0;fillColor=#fff2cc;strokeColor=#d6b656;fontSize=14;fontColor=#333333;" parent="1" vertex="1">
          <mxGeometry x="160" y="40" width="40" height="40" as="geometry" />
        </mxCell>
        <mxCell id="zCmTgFsGxIaxcytd8qIg-19" value="" style="shape=doubleArrow;whiteSpace=wrap;html=1;fillColor=#f5f5f5;fontColor=#333333;strokeColor=#666666;" parent="1" vertex="1">
          <mxGeometry x="400" y="40" width="60" height="40" as="geometry" />
        </mxCell>
        <mxCell id="AQBsLTuEEX6UYwU5JBV7-1" value="s" style="text;html=1;align=center;verticalAlign=middle;whiteSpace=wrap;rounded=0;fontSize=10;" parent="1" vertex="1">
          <mxGeometry x="40" y="80" width="320" height="20" as="geometry" />
        </mxCell>
        <mxCell id="jVVXr_Ei0zPa7iM5kjB4-1" value="return" style="text;html=1;align=center;verticalAlign=middle;whiteSpace=wrap;rounded=0;fontSize=10;" parent="1" vertex="1">
          <mxGeometry x="500" y="80" width="320" height="20" as="geometry" />
        </mxCell>
        <mxCell id="55KUl-LPYFZdl3IMMidi-1" value="a" style="text;html=1;align=center;verticalAlign=middle;whiteSpace=wrap;rounded=0;fillColor=#f8cecc;strokeColor=#b85450;fontSize=14;fontColor=#333333;" vertex="1" parent="1">
          <mxGeometry x="200" y="40" width="40" height="40" as="geometry" />
        </mxCell>
        <mxCell id="55KUl-LPYFZdl3IMMidi-2" value="c" style="text;html=1;align=center;verticalAlign=middle;whiteSpace=wrap;rounded=0;fillColor=#e1d5e7;strokeColor=#9673a6;fontSize=14;fontColor=#333333;" vertex="1" parent="1">
          <mxGeometry x="240" y="40" width="40" height="40" as="geometry" />
        </mxCell>
        <mxCell id="55KUl-LPYFZdl3IMMidi-3" value="a" style="text;html=1;align=center;verticalAlign=middle;whiteSpace=wrap;rounded=0;fillColor=#60a917;strokeColor=#2D7600;fontSize=14;fontColor=#ffffff;" vertex="1" parent="1">
          <mxGeometry x="280" y="40" width="40" height="40" as="geometry" />
        </mxCell>
        <mxCell id="55KUl-LPYFZdl3IMMidi-4" value="r" style="text;html=1;align=center;verticalAlign=middle;whiteSpace=wrap;rounded=0;fillColor=#008a00;strokeColor=#005700;fontSize=14;fontColor=#ffffff;" vertex="1" parent="1">
          <mxGeometry x="320" y="40" width="40" height="40" as="geometry" />
        </mxCell>
        <mxCell id="55KUl-LPYFZdl3IMMidi-8" value="r" style="text;html=1;align=center;verticalAlign=middle;whiteSpace=wrap;rounded=0;fillColor=#008a00;strokeColor=#005700;fontSize=14;fontColor=#ffffff;" vertex="1" parent="1">
          <mxGeometry x="500" y="40" width="40" height="40" as="geometry" />
        </mxCell>
        <mxCell id="55KUl-LPYFZdl3IMMidi-9" value="a" style="text;html=1;align=center;verticalAlign=middle;whiteSpace=wrap;rounded=0;fillColor=#60a917;strokeColor=#2D7600;fontSize=14;fontColor=#ffffff;" vertex="1" parent="1">
          <mxGeometry x="540" y="40" width="40" height="40" as="geometry" />
        </mxCell>
        <mxCell id="55KUl-LPYFZdl3IMMidi-10" value="c" style="text;html=1;align=center;verticalAlign=middle;whiteSpace=wrap;rounded=0;fillColor=#e1d5e7;strokeColor=#9673a6;fontSize=14;fontColor=#333333;" vertex="1" parent="1">
          <mxGeometry x="580" y="40" width="40" height="40" as="geometry" />
        </mxCell>
        <mxCell id="55KUl-LPYFZdl3IMMidi-11" value="a" style="text;html=1;align=center;verticalAlign=middle;whiteSpace=wrap;rounded=0;fillColor=#f8cecc;strokeColor=#b85450;fontSize=14;fontColor=#333333;" vertex="1" parent="1">
          <mxGeometry x="620" y="40" width="40" height="40" as="geometry" />
        </mxCell>
        <mxCell id="55KUl-LPYFZdl3IMMidi-12" value="e" style="text;html=1;align=center;verticalAlign=middle;whiteSpace=wrap;rounded=0;fillColor=#fff2cc;strokeColor=#d6b656;fontSize=14;fontColor=#333333;" vertex="1" parent="1">
          <mxGeometry x="660" y="40" width="40" height="40" as="geometry" />
        </mxCell>
        <mxCell id="55KUl-LPYFZdl3IMMidi-13" value="c" style="text;html=1;align=center;verticalAlign=middle;whiteSpace=wrap;rounded=0;fillColor=#ffe6cc;strokeColor=#d79b00;fontSize=14;fontColor=#333333;" vertex="1" parent="1">
          <mxGeometry x="700" y="40" width="40" height="40" as="geometry" />
        </mxCell>
        <mxCell id="55KUl-LPYFZdl3IMMidi-14" value="a" style="text;html=1;align=center;verticalAlign=middle;whiteSpace=wrap;rounded=0;fillColor=#d5e8d4;strokeColor=#82b366;fontSize=14;fontColor=#333333;" vertex="1" parent="1">
          <mxGeometry x="740" y="40" width="40" height="40" as="geometry" />
        </mxCell>
        <mxCell id="55KUl-LPYFZdl3IMMidi-15" value="r" style="text;html=1;align=center;verticalAlign=middle;whiteSpace=wrap;rounded=0;fillColor=#dae8fc;strokeColor=#6c8ebf;fontSize=14;fontColor=#333333;" vertex="1" parent="1">
          <mxGeometry x="780" y="40" width="40" height="40" as="geometry" />
        </mxCell>
      </root>
    </mxGraphModel>
  </diagram>
  <diagram name="2_1" id="4_LbquYtUVdZRixzMAgo">
    <mxGraphModel dx="548" dy="849" grid="1" gridSize="10" guides="1" tooltips="1" connect="1" arrows="1" fold="1" page="1" pageScale="1" pageWidth="400" pageHeight="160" math="0" shadow="0">
      <root>
        <mxCell id="6zlG6SULL828l9e3iRUW-0" />
        <mxCell id="6zlG6SULL828l9e3iRUW-1" parent="6zlG6SULL828l9e3iRUW-0" />
        <mxCell id="BkY52Ng-mZ84ei557Vbi-0" style="edgeStyle=orthogonalEdgeStyle;rounded=0;orthogonalLoop=1;jettySize=auto;html=1;exitX=0.5;exitY=0;exitDx=0;exitDy=0;entryX=0.5;entryY=0;entryDx=0;entryDy=0;fillColor=#dae8fc;strokeColor=#6c8ebf;" edge="1" parent="6zlG6SULL828l9e3iRUW-1" source="0uHMDYKtVWQRPcJO1kIJ-0" target="0uHMDYKtVWQRPcJO1kIJ-8">
          <mxGeometry relative="1" as="geometry" />
        </mxCell>
        <mxCell id="0uHMDYKtVWQRPcJO1kIJ-0" value="r" style="text;html=1;align=center;verticalAlign=middle;whiteSpace=wrap;rounded=0;fillColor=#dae8fc;strokeColor=#6c8ebf;fontSize=14;fontColor=#333333;" vertex="1" parent="6zlG6SULL828l9e3iRUW-1">
          <mxGeometry x="40" y="59.97" width="40" height="40" as="geometry" />
        </mxCell>
        <mxCell id="0uHMDYKtVWQRPcJO1kIJ-1" value="a" style="text;html=1;align=center;verticalAlign=middle;whiteSpace=wrap;rounded=0;fillColor=#f5f5f5;strokeColor=#666666;fontSize=14;fontColor=#333333;" vertex="1" parent="6zlG6SULL828l9e3iRUW-1">
          <mxGeometry x="80" y="59.97" width="40" height="40" as="geometry" />
        </mxCell>
        <mxCell id="0uHMDYKtVWQRPcJO1kIJ-2" value="c" style="text;html=1;align=center;verticalAlign=middle;whiteSpace=wrap;rounded=0;fillColor=#f5f5f5;strokeColor=#666666;fontSize=14;fontColor=#333333;" vertex="1" parent="6zlG6SULL828l9e3iRUW-1">
          <mxGeometry x="120" y="59.97" width="40" height="40" as="geometry" />
        </mxCell>
        <mxCell id="0uHMDYKtVWQRPcJO1kIJ-3" value="e" style="text;html=1;align=center;verticalAlign=middle;whiteSpace=wrap;rounded=0;fillColor=#f5f5f5;strokeColor=#666666;fontSize=14;fontColor=#333333;" vertex="1" parent="6zlG6SULL828l9e3iRUW-1">
          <mxGeometry x="160" y="59.97" width="40" height="40" as="geometry" />
        </mxCell>
        <mxCell id="0uHMDYKtVWQRPcJO1kIJ-4" value="s" style="text;html=1;align=center;verticalAlign=middle;whiteSpace=wrap;rounded=0;fontSize=10;" vertex="1" parent="6zlG6SULL828l9e3iRUW-1">
          <mxGeometry x="40" y="99.97" width="320" height="20" as="geometry" />
        </mxCell>
        <mxCell id="0uHMDYKtVWQRPcJO1kIJ-5" value="a" style="text;html=1;align=center;verticalAlign=middle;whiteSpace=wrap;rounded=0;fillColor=#f5f5f5;strokeColor=#666666;fontSize=14;fontColor=#333333;" vertex="1" parent="6zlG6SULL828l9e3iRUW-1">
          <mxGeometry x="200" y="59.97" width="40" height="40" as="geometry" />
        </mxCell>
        <mxCell id="0uHMDYKtVWQRPcJO1kIJ-6" value="c" style="text;html=1;align=center;verticalAlign=middle;whiteSpace=wrap;rounded=0;fillColor=#f5f5f5;strokeColor=#666666;fontSize=14;fontColor=#333333;" vertex="1" parent="6zlG6SULL828l9e3iRUW-1">
          <mxGeometry x="240" y="59.97" width="40" height="40" as="geometry" />
        </mxCell>
        <mxCell id="0uHMDYKtVWQRPcJO1kIJ-7" value="a" style="text;html=1;align=center;verticalAlign=middle;whiteSpace=wrap;rounded=0;fillColor=#f5f5f5;strokeColor=#666666;fontSize=14;fontColor=#333333;" vertex="1" parent="6zlG6SULL828l9e3iRUW-1">
          <mxGeometry x="280" y="59.97" width="40" height="40" as="geometry" />
        </mxCell>
        <mxCell id="0uHMDYKtVWQRPcJO1kIJ-8" value="r" style="text;html=1;align=center;verticalAlign=middle;whiteSpace=wrap;rounded=0;fillColor=#dae8fc;strokeColor=#6c8ebf;fontSize=14;fontColor=#333333;" vertex="1" parent="6zlG6SULL828l9e3iRUW-1">
          <mxGeometry x="320" y="59.97" width="40" height="40" as="geometry" />
        </mxCell>
      </root>
    </mxGraphModel>
  </diagram>
  <diagram name="2_2" id="wSzoB3guNhGel2wUQfZU">
    <mxGraphModel dx="548" dy="849" grid="1" gridSize="10" guides="1" tooltips="1" connect="1" arrows="1" fold="1" page="1" pageScale="1" pageWidth="400" pageHeight="160" math="0" shadow="0">
      <root>
        <mxCell id="NuXVvcuN6yEexUtKkc4J-0" />
        <mxCell id="NuXVvcuN6yEexUtKkc4J-1" parent="NuXVvcuN6yEexUtKkc4J-0" />
        <mxCell id="NuXVvcuN6yEexUtKkc4J-2" style="edgeStyle=orthogonalEdgeStyle;rounded=0;orthogonalLoop=1;jettySize=auto;html=1;exitX=0.5;exitY=0;exitDx=0;exitDy=0;entryX=0.5;entryY=0;entryDx=0;entryDy=0;fillColor=#dae8fc;strokeColor=#6c8ebf;" edge="1" parent="NuXVvcuN6yEexUtKkc4J-1" source="NuXVvcuN6yEexUtKkc4J-4" target="NuXVvcuN6yEexUtKkc4J-10">
          <mxGeometry relative="1" as="geometry" />
        </mxCell>
        <mxCell id="NuXVvcuN6yEexUtKkc4J-3" value="r" style="text;html=1;align=center;verticalAlign=middle;whiteSpace=wrap;rounded=0;fillColor=#f5f5f5;strokeColor=#666666;fontSize=14;fontColor=#333333;" vertex="1" parent="NuXVvcuN6yEexUtKkc4J-1">
          <mxGeometry x="40" y="59.97" width="40" height="40" as="geometry" />
        </mxCell>
        <mxCell id="NuXVvcuN6yEexUtKkc4J-4" value="a" style="text;html=1;align=center;verticalAlign=middle;whiteSpace=wrap;rounded=0;fillColor=#dae8fc;strokeColor=#6c8ebf;fontSize=14;fontColor=#333333;" vertex="1" parent="NuXVvcuN6yEexUtKkc4J-1">
          <mxGeometry x="80" y="59.97" width="40" height="40" as="geometry" />
        </mxCell>
        <mxCell id="NuXVvcuN6yEexUtKkc4J-5" value="c" style="text;html=1;align=center;verticalAlign=middle;whiteSpace=wrap;rounded=0;fillColor=#f5f5f5;strokeColor=#666666;fontSize=14;fontColor=#333333;" vertex="1" parent="NuXVvcuN6yEexUtKkc4J-1">
          <mxGeometry x="120" y="59.97" width="40" height="40" as="geometry" />
        </mxCell>
        <mxCell id="NuXVvcuN6yEexUtKkc4J-6" value="e" style="text;html=1;align=center;verticalAlign=middle;whiteSpace=wrap;rounded=0;fillColor=#f5f5f5;strokeColor=#666666;fontSize=14;fontColor=#333333;" vertex="1" parent="NuXVvcuN6yEexUtKkc4J-1">
          <mxGeometry x="160" y="59.97" width="40" height="40" as="geometry" />
        </mxCell>
        <mxCell id="NuXVvcuN6yEexUtKkc4J-7" value="s" style="text;html=1;align=center;verticalAlign=middle;whiteSpace=wrap;rounded=0;fontSize=10;" vertex="1" parent="NuXVvcuN6yEexUtKkc4J-1">
          <mxGeometry x="40" y="99.97" width="320" height="20" as="geometry" />
        </mxCell>
        <mxCell id="NuXVvcuN6yEexUtKkc4J-8" value="a" style="text;html=1;align=center;verticalAlign=middle;whiteSpace=wrap;rounded=0;fillColor=#f5f5f5;strokeColor=#666666;fontSize=14;fontColor=#333333;" vertex="1" parent="NuXVvcuN6yEexUtKkc4J-1">
          <mxGeometry x="200" y="59.97" width="40" height="40" as="geometry" />
        </mxCell>
        <mxCell id="NuXVvcuN6yEexUtKkc4J-9" value="c" style="text;html=1;align=center;verticalAlign=middle;whiteSpace=wrap;rounded=0;fillColor=#f5f5f5;strokeColor=#666666;fontSize=14;fontColor=#333333;" vertex="1" parent="NuXVvcuN6yEexUtKkc4J-1">
          <mxGeometry x="240" y="59.97" width="40" height="40" as="geometry" />
        </mxCell>
        <mxCell id="NuXVvcuN6yEexUtKkc4J-10" value="a" style="text;html=1;align=center;verticalAlign=middle;whiteSpace=wrap;rounded=0;fillColor=#dae8fc;strokeColor=#6c8ebf;fontSize=14;fontColor=#333333;" vertex="1" parent="NuXVvcuN6yEexUtKkc4J-1">
          <mxGeometry x="280" y="59.97" width="40" height="40" as="geometry" />
        </mxCell>
        <mxCell id="NuXVvcuN6yEexUtKkc4J-11" value="r" style="text;html=1;align=center;verticalAlign=middle;whiteSpace=wrap;rounded=0;fillColor=#f5f5f5;strokeColor=#666666;fontSize=14;fontColor=#333333;" vertex="1" parent="NuXVvcuN6yEexUtKkc4J-1">
          <mxGeometry x="320" y="59.97" width="40" height="40" as="geometry" />
        </mxCell>
      </root>
    </mxGraphModel>
  </diagram>
  <diagram name="2_3" id="SYqjLI1bP5us6KXmMbEa">
    <mxGraphModel dx="454" dy="703" grid="1" gridSize="10" guides="1" tooltips="1" connect="1" arrows="1" fold="1" page="1" pageScale="1" pageWidth="400" pageHeight="160" math="0" shadow="0">
      <root>
        <mxCell id="sbXEhiUWoLSyaciFnb_p-0" />
        <mxCell id="sbXEhiUWoLSyaciFnb_p-1" parent="sbXEhiUWoLSyaciFnb_p-0" />
        <mxCell id="sbXEhiUWoLSyaciFnb_p-2" style="edgeStyle=orthogonalEdgeStyle;rounded=0;orthogonalLoop=1;jettySize=auto;html=1;exitX=0.5;exitY=0;exitDx=0;exitDy=0;entryX=0.5;entryY=0;entryDx=0;entryDy=0;fillColor=#dae8fc;strokeColor=#6c8ebf;" edge="1" parent="sbXEhiUWoLSyaciFnb_p-1" source="sbXEhiUWoLSyaciFnb_p-5" target="sbXEhiUWoLSyaciFnb_p-9">
          <mxGeometry relative="1" as="geometry" />
        </mxCell>
        <mxCell id="sbXEhiUWoLSyaciFnb_p-3" value="r" style="text;html=1;align=center;verticalAlign=middle;whiteSpace=wrap;rounded=0;fillColor=#f5f5f5;strokeColor=#666666;fontSize=14;fontColor=#333333;" vertex="1" parent="sbXEhiUWoLSyaciFnb_p-1">
          <mxGeometry x="40" y="59.97" width="40" height="40" as="geometry" />
        </mxCell>
        <mxCell id="sbXEhiUWoLSyaciFnb_p-4" value="a" style="text;html=1;align=center;verticalAlign=middle;whiteSpace=wrap;rounded=0;fillColor=#f5f5f5;strokeColor=#666666;fontSize=14;fontColor=#333333;" vertex="1" parent="sbXEhiUWoLSyaciFnb_p-1">
          <mxGeometry x="80" y="59.97" width="40" height="40" as="geometry" />
        </mxCell>
        <mxCell id="sbXEhiUWoLSyaciFnb_p-5" value="c" style="text;html=1;align=center;verticalAlign=middle;whiteSpace=wrap;rounded=0;fillColor=#dae8fc;strokeColor=#6c8ebf;fontSize=14;fontColor=#333333;" vertex="1" parent="sbXEhiUWoLSyaciFnb_p-1">
          <mxGeometry x="120" y="59.97" width="40" height="40" as="geometry" />
        </mxCell>
        <mxCell id="sbXEhiUWoLSyaciFnb_p-6" value="e" style="text;html=1;align=center;verticalAlign=middle;whiteSpace=wrap;rounded=0;fillColor=#f5f5f5;strokeColor=#666666;fontSize=14;fontColor=#333333;" vertex="1" parent="sbXEhiUWoLSyaciFnb_p-1">
          <mxGeometry x="160" y="59.97" width="40" height="40" as="geometry" />
        </mxCell>
        <mxCell id="sbXEhiUWoLSyaciFnb_p-7" value="s" style="text;html=1;align=center;verticalAlign=middle;whiteSpace=wrap;rounded=0;fontSize=10;" vertex="1" parent="sbXEhiUWoLSyaciFnb_p-1">
          <mxGeometry x="40" y="99.97" width="320" height="20" as="geometry" />
        </mxCell>
        <mxCell id="sbXEhiUWoLSyaciFnb_p-8" value="a" style="text;html=1;align=center;verticalAlign=middle;whiteSpace=wrap;rounded=0;fillColor=#f5f5f5;strokeColor=#666666;fontSize=14;fontColor=#333333;" vertex="1" parent="sbXEhiUWoLSyaciFnb_p-1">
          <mxGeometry x="200" y="59.97" width="40" height="40" as="geometry" />
        </mxCell>
        <mxCell id="sbXEhiUWoLSyaciFnb_p-9" value="c" style="text;html=1;align=center;verticalAlign=middle;whiteSpace=wrap;rounded=0;fillColor=#dae8fc;strokeColor=#6c8ebf;fontSize=14;fontColor=#333333;" vertex="1" parent="sbXEhiUWoLSyaciFnb_p-1">
          <mxGeometry x="240" y="59.97" width="40" height="40" as="geometry" />
        </mxCell>
        <mxCell id="sbXEhiUWoLSyaciFnb_p-10" value="a" style="text;html=1;align=center;verticalAlign=middle;whiteSpace=wrap;rounded=0;fillColor=#f5f5f5;strokeColor=#666666;fontSize=14;fontColor=#333333;" vertex="1" parent="sbXEhiUWoLSyaciFnb_p-1">
          <mxGeometry x="280" y="59.97" width="40" height="40" as="geometry" />
        </mxCell>
        <mxCell id="sbXEhiUWoLSyaciFnb_p-11" value="r" style="text;html=1;align=center;verticalAlign=middle;whiteSpace=wrap;rounded=0;fillColor=#f5f5f5;strokeColor=#666666;fontSize=14;fontColor=#333333;" vertex="1" parent="sbXEhiUWoLSyaciFnb_p-1">
          <mxGeometry x="320" y="59.97" width="40" height="40" as="geometry" />
        </mxCell>
      </root>
    </mxGraphModel>
  </diagram>
  <diagram name="2_4" id="-GXrV4DAgTiYbmGNjtY_">
    <mxGraphModel dx="454" dy="703" grid="1" gridSize="10" guides="1" tooltips="1" connect="1" arrows="1" fold="1" page="1" pageScale="1" pageWidth="400" pageHeight="240" math="0" shadow="0">
      <root>
        <mxCell id="0BvNh-M2uLu5O_VOSxBA-0" />
        <mxCell id="0BvNh-M2uLu5O_VOSxBA-1" parent="0BvNh-M2uLu5O_VOSxBA-0" />
        <mxCell id="0BvNh-M2uLu5O_VOSxBA-2" style="edgeStyle=orthogonalEdgeStyle;rounded=0;orthogonalLoop=1;jettySize=auto;html=1;exitX=0.5;exitY=0;exitDx=0;exitDy=0;entryX=0.5;entryY=0;entryDx=0;entryDy=0;fillColor=#dae8fc;strokeColor=#6c8ebf;" edge="1" parent="0BvNh-M2uLu5O_VOSxBA-1" source="0BvNh-M2uLu5O_VOSxBA-6" target="0BvNh-M2uLu5O_VOSxBA-8">
          <mxGeometry relative="1" as="geometry" />
        </mxCell>
        <mxCell id="0BvNh-M2uLu5O_VOSxBA-3" value="r" style="text;html=1;align=center;verticalAlign=middle;whiteSpace=wrap;rounded=0;fillColor=#f5f5f5;strokeColor=#666666;fontSize=14;fontColor=#333333;" vertex="1" parent="0BvNh-M2uLu5O_VOSxBA-1">
          <mxGeometry x="40" y="59.97" width="40" height="40" as="geometry" />
        </mxCell>
        <mxCell id="0BvNh-M2uLu5O_VOSxBA-4" value="a" style="text;html=1;align=center;verticalAlign=middle;whiteSpace=wrap;rounded=0;fillColor=#f5f5f5;strokeColor=#666666;fontSize=14;fontColor=#333333;" vertex="1" parent="0BvNh-M2uLu5O_VOSxBA-1">
          <mxGeometry x="80" y="59.97" width="40" height="40" as="geometry" />
        </mxCell>
        <mxCell id="0BvNh-M2uLu5O_VOSxBA-5" value="c" style="text;html=1;align=center;verticalAlign=middle;whiteSpace=wrap;rounded=0;fillColor=#f5f5f5;strokeColor=#666666;fontSize=14;fontColor=#333333;" vertex="1" parent="0BvNh-M2uLu5O_VOSxBA-1">
          <mxGeometry x="120" y="59.97" width="40" height="40" as="geometry" />
        </mxCell>
        <mxCell id="0BvNh-M2uLu5O_VOSxBA-6" value="e" style="text;html=1;align=center;verticalAlign=middle;whiteSpace=wrap;rounded=0;fillColor=#dae8fc;strokeColor=#6c8ebf;fontSize=14;fontColor=#333333;" vertex="1" parent="0BvNh-M2uLu5O_VOSxBA-1">
          <mxGeometry x="160" y="59.97" width="40" height="40" as="geometry" />
        </mxCell>
        <mxCell id="0BvNh-M2uLu5O_VOSxBA-7" value="s" style="text;html=1;align=center;verticalAlign=middle;whiteSpace=wrap;rounded=0;fontSize=10;" vertex="1" parent="0BvNh-M2uLu5O_VOSxBA-1">
          <mxGeometry x="40" y="99.97" width="320" height="20" as="geometry" />
        </mxCell>
        <mxCell id="ATDBuA3Ls2OB49vb1xLL-1" style="edgeStyle=orthogonalEdgeStyle;rounded=0;orthogonalLoop=1;jettySize=auto;html=1;exitX=0.5;exitY=1;exitDx=0;exitDy=0;entryX=0.5;entryY=0;entryDx=0;entryDy=0;fillColor=#dae8fc;strokeColor=#6c8ebf;" edge="1" parent="0BvNh-M2uLu5O_VOSxBA-1" source="0BvNh-M2uLu5O_VOSxBA-8" target="ATDBuA3Ls2OB49vb1xLL-0">
          <mxGeometry relative="1" as="geometry" />
        </mxCell>
        <mxCell id="ATDBuA3Ls2OB49vb1xLL-2" value="&lt;font style=&quot;font-size: 10px;&quot;&gt;e != a&lt;/font&gt;" style="edgeLabel;html=1;align=center;verticalAlign=middle;resizable=0;points=[];" vertex="1" connectable="0" parent="ATDBuA3Ls2OB49vb1xLL-1">
          <mxGeometry x="0.1385" y="2" relative="1" as="geometry">
            <mxPoint as="offset" />
          </mxGeometry>
        </mxCell>
        <mxCell id="0BvNh-M2uLu5O_VOSxBA-8" value="a" style="text;html=1;align=center;verticalAlign=middle;whiteSpace=wrap;rounded=0;fillColor=#dae8fc;strokeColor=#6c8ebf;fontSize=14;fontColor=#333333;" vertex="1" parent="0BvNh-M2uLu5O_VOSxBA-1">
          <mxGeometry x="200" y="59.97" width="40" height="40" as="geometry" />
        </mxCell>
        <mxCell id="0BvNh-M2uLu5O_VOSxBA-9" value="c" style="text;html=1;align=center;verticalAlign=middle;whiteSpace=wrap;rounded=0;fillColor=#f5f5f5;strokeColor=#666666;fontSize=14;fontColor=#333333;" vertex="1" parent="0BvNh-M2uLu5O_VOSxBA-1">
          <mxGeometry x="240" y="59.97" width="40" height="40" as="geometry" />
        </mxCell>
        <mxCell id="0BvNh-M2uLu5O_VOSxBA-10" value="a" style="text;html=1;align=center;verticalAlign=middle;whiteSpace=wrap;rounded=0;fillColor=#f5f5f5;strokeColor=#666666;fontSize=14;fontColor=#333333;" vertex="1" parent="0BvNh-M2uLu5O_VOSxBA-1">
          <mxGeometry x="280" y="59.97" width="40" height="40" as="geometry" />
        </mxCell>
        <mxCell id="0BvNh-M2uLu5O_VOSxBA-11" value="r" style="text;html=1;align=center;verticalAlign=middle;whiteSpace=wrap;rounded=0;fillColor=#f5f5f5;strokeColor=#666666;fontSize=14;fontColor=#333333;" vertex="1" parent="0BvNh-M2uLu5O_VOSxBA-1">
          <mxGeometry x="320" y="59.97" width="40" height="40" as="geometry" />
        </mxCell>
        <mxCell id="ATDBuA3Ls2OB49vb1xLL-0" value="false" style="text;html=1;align=center;verticalAlign=middle;whiteSpace=wrap;rounded=0;fillColor=#d5e8d4;strokeColor=#82b366;fontSize=14;fontColor=#333333;" vertex="1" parent="0BvNh-M2uLu5O_VOSxBA-1">
          <mxGeometry x="200" y="160" width="40" height="40" as="geometry" />
        </mxCell>
      </root>
    </mxGraphModel>
  </diagram>
</mxfile>
